<?xml version="1.0" encoding="utf-8"?>
<!-- Generator: Adobe Illustrator 24.0.0, SVG Export Plug-In . SVG Version: 6.00 Build 0)  -->
<svg version="1.1" id="Layer_2" xmlns="http://www.w3.org/2000/svg" xmlns:xlink="http://www.w3.org/1999/xlink" x="0px" y="0px" width="45" height="45" 
	 viewBox="0 0 100 100" style="enable-background:new 0 0 100 100;" xml:space="preserve">
<style type="text/css">
	.st0{fill:#FF0001;}
	.st1{fill:#FFFF01;}
</style>
<g>
	<g>
		<circle cx="51.5" cy="50" r="48.5"/>
		<circle class="st0" cx="51.5" cy="50" r="47.2"/>
	</g>
	<path d="M63.4,93.7L63.4,93.7C63.4,93.7,63.4,93.7,63.4,93.7c0-0.1-1.4,0.3-1.4,0.3l-0.1-0.5l0.5-0.1c0.1,0,0.3-0.1,0.4-0.1l0.1,0
		c0,0,0,0,0,0l0-0.1c0,0,0-0.1,0-0.1c0-0.1,0-0.1-0.1-0.2l0,0c0,0,0,0,0,0c0,0-1,0.2-1,0.2s-0.1-0.3-0.1-0.4l1.3-0.3c0,0,0,0,0,0
		l0-0.1c0-0.1,0-0.2-0.1-0.3l-0.1,0l-0.1,0c0,0,0,0,0,0l-1.6,0.4c0,0,0,0-0.1,0l0,0.1l0.5,2c0,0,0,0.1,0.1,0.1l0,0c0,0,0,0,0,0
		c0,0,0,0,0,0c0.1,0,1.7-0.4,1.8-0.5l0,0c0,0,0,0,0,0l-0.1-0.2C63.4,93.8,63.4,93.8,63.4,93.7z M56.9,93.1
		C56.9,93.1,56.9,93.1,56.9,93.1L56.9,93.1c-0.2,0-2,0.1-2.2,0.2l0,0c0,0,0,0,0,0l0,0c0,0.1,0,0.2,0,0.3l0,0c0,0,0,0,0,0
		c0,0,0,0,0,0c0,0,0.6-0.1,0.6-0.1c0,0,0.1,0,0.1,0c0,0,0.1,0,0.1,0l0.2,1.7c0,0,0,0,0,0l0,0c0,0,0,0,0,0c0,0,0,0,0,0
		c0,0,0.4,0,0.4,0c0,0,0,0,0,0c0-0.1,0-0.1,0-0.2c0-0.4-0.1-1.5-0.1-1.6l0.6-0.1c0.1,0,0.1,0,0.2,0l0,0c0,0,0,0,0,0l0,0
		C56.9,93.4,56.9,93.2,56.9,93.1L56.9,93.1z M38.1,91.2c-0.2-0.2-0.4-0.3-0.6-0.4c-0.2-0.1-0.4-0.1-0.6-0.1c0,0-0.1,0-0.1,0
		c-0.4,0-0.6,0.2-0.7,0.6c0,0.1,0,0.3,0.1,0.4c0.1,0.1,0.2,0.2,0.3,0.2c0.1,0.1,0.3,0.1,0.5,0.2c0.1,0,0.2,0.1,0.2,0.1
		c0.1,0,0.1,0.1,0.2,0.1c0,0,0.1,0.1,0.1,0.1c0,0.1,0,0.2-0.2,0.2c0,0-0.1,0-0.1,0l0,0c-0.1,0-0.2,0-0.3-0.1
		c-0.2-0.1-0.3-0.2-0.4-0.3c-0.1-0.1-0.2-0.2-0.2-0.3l0,0c0,0,0,0,0,0c0,0,0,0,0,0l0,0c-0.1,0-0.1,0.1-0.2,0.1c0,0-0.1,0-0.1,0.1
		l0,0l0,0.1c0,0,0,0,0,0c0.1,0.2,0.2,0.3,0.4,0.4c0.2,0.2,0.5,0.3,0.8,0.3c0.1,0,0.2,0,0.3,0c0.1,0,0.1,0,0.2,0
		c0.2,0,0.4-0.1,0.5-0.3c0.1-0.1,0.2-0.3,0.2-0.5c0-0.2,0-0.3-0.1-0.4c-0.1-0.1-0.2-0.2-0.3-0.2c-0.2-0.1-0.3-0.2-0.5-0.2L37,91.6
		c-0.1,0-0.2-0.1-0.3-0.1c0,0-0.1-0.1-0.1-0.1c0,0,0-0.1,0.1-0.1c0,0,0.1,0,0.2,0c0,0,0.1,0,0.1,0l0,0c0.3,0.1,0.5,0.2,0.7,0.4
		c0,0,0,0.1,0.1,0.1c0,0,0,0,0,0l0.3-0.2c0,0,0,0,0,0l0,0C38.2,91.3,38.1,91.3,38.1,91.2z M44.1,92.7L44.1,92.7
		c-0.1,0-0.1,0.1-0.1,0.1l-1.1,0.7l0.2-0.9c0,0,0,0,0,0l0,0c-0.1,0-0.2-0.1-0.4-0.1c0,0,0,0-0.1,0c0,0,0,0,0,0l0,0
		c-0.1,0.2-0.4,2.1-0.4,2.2l0,0c0,0,0,0,0,0c0,0,0.5,0.1,0.5,0.1c0,0,0,0,0,0c0,0,0,0,0,0l0.1-0.7c0.1-0.1,0.3-0.2,0.4-0.3l0.6,1.2
		c0,0,0,0,0,0c0.2,0,0.4,0.1,0.5,0.1c0,0,0,0,0,0l0.1,0c0,0,0,0,0,0c0,0,0,0,0,0l-0.8-1.5l0.5-0.3c0.1,0,0.1-0.1,0.2-0.1
		c0,0,0.1,0,0.1-0.1c0.1,0,0.1-0.1,0.2-0.1l0.1-0.1c0,0,0,0,0,0c0,0,0,0,0,0L44.1,92.7z M49.6,93.4l-0.1,0.1l-1,2c0,0,0,0.1,0,0.1
		l0,0c0,0,0,0,0,0l0.4,0c0,0,0,0,0,0c0-0.1,0.1-0.1,0.1-0.2c0,0,0-0.1,0-0.1c0-0.1,0.1-0.1,0.1-0.2l0,0l0.9,0l0.3,0.6l0.5,0
		c0,0,0,0,0,0c0,0,0,0,0,0l-1-2.3L49.6,93.4z M49.6,94.7l0.3-0.6l0.2,0.6L49.6,94.7z M74.5,87.4c-0.2-0.1-0.3-0.1-0.5-0.1
		c-0.3,0-0.6,0.1-0.9,0.3c-0.2,0.2-0.4,0.4-0.5,0.7c-0.1,0.4-0.1,0.8,0.2,1.1c0.2,0.3,0.5,0.4,0.8,0.5c0.1,0,0.2,0,0.2,0
		c0.2,0,0.4,0,0.6-0.1l0.1,0c0.1,0,0.1,0,0.2-0.1c0.3-0.2,0.5-0.4,0.6-0.7c0.1-0.3,0.1-0.5,0-0.8C75.1,87.7,74.9,87.5,74.5,87.4z
		 M74.8,88.7c0,0.2-0.2,0.3-0.4,0.5c0,0-0.1,0-0.1,0l0,0c-0.1,0.1-0.2,0.1-0.4,0.1c-0.3,0-0.5-0.1-0.6-0.3c-0.2-0.3-0.1-0.7,0.2-1
		c0.2-0.1,0.4-0.2,0.6-0.2c0.2,0,0.4,0.1,0.5,0.2C74.8,88.2,74.8,88.4,74.8,88.7z M88.1,74.7c-0.1,0-0.2-0.1-0.4-0.1
		c-0.1,0-0.2,0-0.3,0.1c-0.2,0.1-0.4,0.2-0.5,0.4l-0.6,0.9c0,0,0,0.1,0,0.1c0,0,0,0,0,0l1.8,1.3c0,0,0.1,0,0.1,0c0,0,0,0,0,0l0,0
		c0,0,0,0,0,0c0.1-0.1,0.2-0.2,0.3-0.3c0.2-0.2,0.3-0.4,0.4-0.6c0.2-0.4,0.2-0.7,0-1.1C88.7,75,88.4,74.8,88.1,74.7z M88.4,76
		c0,0.1-0.1,0.1-0.1,0.2c-0.1,0.1-0.2,0.2-0.2,0.3L88,76.7l-1.1-0.8l0.1-0.2c0.1-0.1,0.2-0.2,0.3-0.4c0.1-0.1,0.3-0.2,0.4-0.2
		c0.1,0,0.1,0,0.2,0c0.2,0.1,0.4,0.2,0.5,0.3C88.5,75.7,88.5,75.8,88.4,76z M92.2,69.7c-0.1-0.1-0.3-0.2-0.4-0.2c0,0-0.1,0-0.2,0
		c-0.1,0-0.2,0-0.3,0.1c-0.1,0.1-0.2,0.1-0.3,0.2c-0.1,0.1-0.2,0.3-0.3,0.5l-0.1,0.1c-0.1,0.1-0.1,0.2-0.2,0.3c0,0-0.1,0-0.1,0
		c-0.1,0-0.1,0-0.1-0.1c0-0.1,0-0.1,0-0.2c0-0.1,0-0.1,0-0.2l0,0c0.1-0.3,0.3-0.5,0.5-0.6c0,0,0.1,0,0.1-0.2l-0.1-0.3c0,0,0,0,0,0
		c0,0,0,0,0,0c-0.1,0-0.1,0.1-0.2,0.1c-0.2,0.1-0.3,0.3-0.4,0.5c-0.2,0.3-0.2,0.5-0.2,0.7c0,0.4,0.2,0.6,0.5,0.7c0.1,0,0.1,0,0.2,0
		c0.1,0,0.2,0,0.2-0.1c0.1-0.1,0.2-0.1,0.3-0.2c0.1-0.1,0.2-0.3,0.3-0.5c0-0.1,0.1-0.1,0.1-0.2c0.1-0.1,0.1-0.1,0.2-0.2
		c0,0,0.1,0,0.1,0c0,0,0,0,0,0c0.1,0,0.2,0.1,0.2,0.2c0,0,0,0.1,0,0.2c0,0.1-0.1,0.2-0.1,0.3c-0.1,0.2-0.2,0.3-0.3,0.4
		c-0.1,0.1-0.2,0.2-0.3,0.2l0,0c0,0,0,0,0,0l0,0c0,0.1,0.1,0.2,0.1,0.2c0,0,0,0.1,0,0.1l0,0l0,0c0,0,0,0,0,0c0,0,0,0,0.1,0
		c0.2-0.1,0.3-0.2,0.5-0.4c0.2-0.2,0.3-0.4,0.4-0.7c0.1-0.1,0.1-0.3,0.1-0.4C92.4,70,92.3,69.8,92.2,69.7z M69.1,90.9
		C69.1,90.9,69.1,90.9,69.1,90.9c0-0.1,0-0.2,0-0.4c0-0.2-0.1-0.3-0.2-0.4c-0.1-0.1-0.3-0.1-0.4-0.1c-0.1,0-0.2,0-0.2,0
		c-0.3,0.1-0.6,0.2-0.9,0.3L67,90.6c0,0-0.1,0-0.1,0.1c0,0,0,0,0,0l0.8,2c0,0,0,0,0,0l0.1,0c0,0,0,0,0,0c0,0,0,0,0,0c0,0,0,0,0,0
		l1.1-0.4c0.1,0,0.2-0.1,0.3-0.1c0.2-0.1,0.3-0.3,0.4-0.5C69.7,91.4,69.5,91,69.1,90.9z M67.7,91.3l-0.1-0.4l0.8-0.3
		c0,0,0.1,0,0.1,0c0,0,0,0,0,0c0.1,0,0.2,0.1,0.2,0.1c0,0.1,0,0.2-0.1,0.3c0,0,0,0-0.1,0L67.7,91.3z M68.9,91.8
		c-0.1,0-0.1,0.1-0.2,0.1c-0.1,0.1-0.3,0.1-0.4,0.2L68,92.1l-0.2-0.4l0.1-0.1c0.2-0.1,0.5-0.2,0.7-0.3c0,0,0.1,0,0.1,0
		c0.1,0,0.1,0,0.2,0.1c0,0,0.1,0.1,0.1,0.2C69,91.7,69,91.7,68.9,91.8z M85.2,80.7c-0.2,0-0.3-0.1-0.5-0.1c-0.1,0-0.3-0.1-0.4-0.1
		c0,0,0,0,0-0.1c0.1-0.3,0-0.6-0.2-0.7c-0.1-0.1-0.3-0.2-0.5-0.2c0,0-0.1,0-0.1,0c-0.2,0-0.3,0.1-0.5,0.2l-0.9,0.9
		c0,0-0.1,0.1,0,0.1c0,0,0,0,0,0c0.1,0.1,1.5,1.5,1.6,1.5l0,0c0,0,0,0,0,0c0,0,0,0,0,0l0,0c0,0,0.1-0.1,0.1-0.1
		c0.1-0.1,0.1-0.1,0.2-0.2l0,0c0,0,0,0,0,0l-0.6-0.6l0.4-0.5l1,0.2l0.4-0.4c0,0,0,0,0,0C85.4,80.7,85.3,80.7,85.2,80.7L85.2,80.7z
		 M83.8,80.4C83.8,80.4,83.8,80.4,83.8,80.4L83.2,81l-0.4-0.3l0.5-0.6c0,0,0.1-0.1,0.1-0.1c0,0,0.1,0,0.1,0c0.1,0,0.1,0,0.1,0.1
		C83.9,80.1,83.9,80.3,83.8,80.4z M78.3,84.1l-0.3,0.3l0,0.1l0.5,2.1c0,0,0,0.1,0.1,0.1l0,0c0,0,0,0,0,0c0,0,0,0,0,0l0.4-0.3
		c0,0,0,0,0-0.1c0-0.1,0-0.1,0-0.2c0,0,0-0.1,0-0.1c0-0.1,0-0.1-0.1-0.2l0,0c0.1-0.1,0.6-0.5,0.7-0.6l0.6,0.3l0.4-0.3c0,0,0,0,0,0
		c0,0,0,0,0,0L78.3,84.1z M78.7,85.4c0-0.1-0.1-0.4-0.2-0.6l0.6,0.3C79,85.1,78.9,85.2,78.7,85.4z"/>
	<g>
		<path class="st1" d="M80.6,11.1c0.2-0.3,0.2-0.4,0.4-0.4l2.3-0.8c0.1,0,0.1,0,0.1,0.2l1.4,22.4c0,0.1,0,0.3-0.2,0.3l-18.1,6.1
			c-0.1,0.1-0.1-0.1-0.1-0.2L80.6,11.1z M58,21.5l0.6-3.1c0-0.1,0.1-0.2,0.2-0.3l16-5.4c0.1,0,0.3,0,0.2,0.2c0,0-0.5,2.7-0.6,3
			c0,0.1-0.1,0.2-0.3,0.2c0,0-6,2-6.4,2.2c-0.2,0.1-0.3,0.1-0.3,0.3c-0.1,0.4-4.2,21.1-4.2,21.1c0,0.2-0.1,0.4-0.3,0.4L60.3,41
			c-0.3,0.1-0.3,0-0.3,0l4.2-21.2c0-0.2-0.1-0.2-0.2-0.1l-5.9,2C58,21.6,57.9,21.6,58,21.5z M37.3,48.5L42.2,24
			c0-0.2,0.1-0.2,0.2-0.3l2.6-0.9c0.2-0.1,0.3-0.1,0.3,0.1L50,38.1c0.1,0.2,0.2,0.2,0.3,0l3.6-18.1c0-0.2,0.1-0.2,0.3-0.3l2.7-0.9
			c0.4-0.1,0.4,0,0.4,0.1l-4.9,24.5c0,0.2-0.3,0.3-0.4,0.4l-2.6,0.9c-0.4,0.1-0.4,0-0.5-0.2c0,0-4.3-14.2-4.4-14.4
			c-0.1-0.2-0.2-0.2-0.2,0c0,0-3.2,16.1-3.4,17.1c-0.1,0.4-0.1,0.4-0.2,0.5l-2.9,1C37.3,48.8,37.3,48.6,37.3,48.5z M32.6,27.2
			c0.1-0.2,0.1-0.2,0.3-0.3l2.1-0.7c0.2-0.1,0.4-0.1,0.4,0.2l1.4,21.9c0,0.5,0,0.6-0.2,0.6c0,0-16.8,5.7-17.8,6
			c-0.4,0.1-0.3-0.3-0.2-0.4L32.6,27.2z M15.3,52c-0.2,1.2-0.9,3.2-1.9,4.1c-0.4,0.4-1.2,1.2-3.2,1.9c0,0-7.9,2.7-8.6,2.9
			c-0.2,0.1-0.3,0-0.2-0.2c0,0,0.8-2.8,0.8-3c0-0.1,0.1-0.2,0.1-0.2c0.1-0.1,0.2-0.1,0.4-0.2C3.5,57.1,9,55.2,9,55.2
			c2.1-0.7,2.9-1.8,3.4-4.3l3-15.2c0.2-1.3,0.9-2.2,1.5-2.8c0.7-0.8,2-1.2,3-1.5c0.2,0,9-3,9-3c0.2-0.1,0.4-0.1,0.3,0.1
			c0,0-0.5,2.4-0.5,2.7c-0.1,0.2-0.2,0.5-0.5,0.6L21.5,34c-1,0.3-1.7,0.7-2.4,1.6c-0.5,0.6-0.8,1.6-0.9,1.9L15.3,52z M24.9,49.8
			c0.1,0,6.8-2.3,8.4-2.8c0.3-0.1,0.3-0.1,0.3-0.5c0-0.2-0.7-10.9-0.7-12.1c-0.1-0.9-0.2-0.6-0.3-0.3l-7.9,15.4
			C24.4,49.9,24.6,49.9,24.9,49.8z M72.9,33.5l8.6-2.9c0.2-0.1,0.2-0.3,0.2-0.4l-0.8-12.3c0-0.4-0.2-0.3-0.3-0.1l-7.9,15.5
			C72.5,33.4,72.5,33.6,72.9,33.5z M30.6,80.8c0,0.2-0.5,2.7-0.6,3c0,0.1,0,0.2-0.2,0.2c0,0-7.9,2.7-8.6,2.9c-0.3,0.1-0.5,0.1-0.8,0
			c-1.2-0.3-1.4-1.3-1.4-1.4c-0.1-0.6,0.1-1.7,0.2-2c0.2-0.9,3.7-18.5,3.7-18.5c0.3-1.7,1.5-2.7,2.2-2.9l9.3-3.2
			c0.1,0,0.3,0,0.2,0.2c-0.1,0.5-0.5,2.4-0.6,2.8c-0.1,0.2,0,0.3-0.4,0.4c0,0-5.6,1.8-6.2,2.1c-0.4,0.2-0.6,0.4-0.9,0.6
			c-0.1,0.1-0.6,0.6-0.8,1.2c-0.1,0.3-0.2,0.5-0.2,0.8c-0.1,0.4-2.7,13.6-2.9,14.2c-0.1,0.2-0.1,0.5-0.1,0.7c0,0.1,0,0.2,0,0.3
			c0,0.3,0.4,0.7,0.9,0.6c0.2,0,0.3-0.1,0.5-0.1l6.5-2.2C30.6,80.6,30.6,80.7,30.6,80.8z M50.8,57.4c0,0.1-1.9,9.7-1.9,9.7
			c-0.1,0.4-0.2,0.8-0.3,1.3c0,0.1-0.1,0.3-0.1,0.4c-0.1,0.3-0.2,0.5-0.3,0.8c0,0.1-0.4,0.9-1.2,1.5c-0.1,0-0.7,0.4-0.7,0.4
			c-0.1,0.1-0.2,0.1,0,0.4c0,0,3.1,5.4,3.1,5.5c0,0.1,0.1,0.1-0.2,0.2l-2.5,0.9c-0.1,0-0.2,0.1-0.3,0c0,0-3.2-5.5-3.2-5.6
			c-0.1-0.2-0.2-0.2-0.3-0.1c-0.5,0.2-5.5,1.9-5.6,1.9c-0.1,0-0.3,0.1-0.3,0.3c0,0-1.4,7.2-1.4,7.2c0,0.1-0.1,0.2-0.2,0.2
			c-0.2,0.1-2.9,1-2.9,1c0,0-0.2,0.1-0.2-0.1c0,0,4.9-24.5,4.9-24.7c0.1-0.3,0.1-0.3,0.5-0.5c0.1,0,10.8-3.7,11.4-3.9
			c0.4-0.1,0.7-0.1,1.1,0c0.3,0.1,0.5,0.3,0.6,0.6c0.1,0.2,0.2,0.4,0.2,0.6C51,56,50.9,56.7,50.8,57.4z M65.9,67.6
			c-0.1,0.5-0.6,2.9-0.9,3.5c-0.1,0.4-0.4,0.7-0.6,1c-0.1,0.1-0.2,0.3-1.1,0.6L53.5,76c-0.2,0.1-0.5,0.1-0.8,0
			c-2-0.5-1.5-2.2-1.5-2.4c0,0,4.3-21.6,4.4-21.7c0-0.1,0-0.1,0.2-0.2l2.9-1c0.1,0,0.2,0,0.2,0.3c-0.1,0.4-3.8,19.1-4,20.2
			c0,0.2-0.1,0.5,0,0.7c0,0.2,0.2,0.4,0.9,0.2c0.4-0.1,4.8-1.7,5.6-1.9c0.5-0.2,0.8-0.5,1.1-1.1c0.1-0.2,0.1-0.2,0.1-0.4
			c0.2-1.1,4.1-20.5,4.1-20.6c0-0.1,0.1-0.1,0.1-0.1c0.9-0.3,2.8-1,2.8-1c0.4-0.1,0.3,0,0.3,0.1C69.9,47.5,66.1,66.4,65.9,67.6z
			 M85.3,42.1c-0.1,0.7-0.3,1.5-0.4,2.1c-0.1,0.3-0.1,0.6-0.2,0.8c0,0.2-0.1,0.4-0.2,0.5C83.7,47,73.4,64.9,73,65.6
			c-0.1,0.1-0.2,0.3-0.2,0.4c0,0.1-0.2,0.3-0.1,0.3l8.3-2.8c0.1,0,0.1,0,0.1,0l-0.7,3.3c0,0.1-0.1,0.1-0.3,0.2l-12.3,4.2
			c-0.4,0.1-0.4-0.1-0.3-0.1c0.1-0.5,0.5-2.4,0.6-2.9c0-0.2,0.1-0.3,0.2-0.4l12-20.7c0.3-0.5-0.4-0.3-1.1,0L72,49.5
			c-0.1,0-0.1,0.1-0.2,0c-0.1-0.1,0-0.1,0-0.2c0-0.2,0.1-0.3,0.1-0.5c0.2-0.8,0.3-1.6,0.5-2.4c0-0.2,0.1-0.3,0.3-0.3
			c0.1,0,12.2-4.1,12.4-4.2c0.1,0,0.2,0,0.2,0C85.3,42,85.3,42.1,85.3,42.1z M47,58c-0.2,0.1-7.1,2.4-7.1,2.4
			c-0.1,0-0.1,0.1-0.1,0.2c0,0.2-2,10.3-2.1,10.4c0,0.1,0,0.3,0.2,0.2c0,0,6.6-2.3,6.6-2.3c0.7-0.2,1.1-0.7,1.3-1.8
			c0,0,1.6-8.1,1.7-8.6C47.6,57.8,47.2,57.9,47,58z"/>
		<path d="M18.2,56.8c0,0,0.1,0,0.1,0.1l2,1.7c0.1,0.1,0.2,0,0.3,0c0.4-0.2,23-7.8,23-7.8c0.3-0.1,0.4-0.2,0.4-0.4L46,40
			c0-0.2,0.1-0.2,0.2,0.1l1.7,5.7c0,0.1,0.2,0.4,0.3,0.5l2.4,1.9c0.1,0.1,0.2,0.1,0.4,0.1l4.4-1.5c0.1,0,0.1-0.1,0.2-0.2l4.4-21.9
			l2.1-0.7c0.1,0,0.2-0.1,0.2,0.1l-3.5,17.6c-0.1,0.3,0.1,0.5,0.2,0.6l2.7,2.3c0.1,0.1,0.2,0.1,0.4,0.1l4.2-1.4
			c0.1,0,0.2-0.1,0.3-0.2l0.2-1c0-0.2,0.2-0.1,0.3,0l0.7,0.6c0.1,0.1,0.2,0.1,0.3,0l19.7-6.7c0.2-0.1,0.3-0.2,0.3-0.5l-1.5-23.5
			c0-0.1,0-0.2-0.1-0.3C86.3,11.1,83.8,9,83.8,9c-0.2-0.2-0.4-0.3-0.6-0.2l-2.9,1c-0.2,0.1-0.3,0.2-0.4,0.4l-1.6,3.2
			c0,0.1-0.1,0.1-0.2,0l-2.4-1.8c-0.2-0.1-0.3-0.1-0.5-0.1l-17.1,5.8c-0.1,0-0.2,0.1-0.3,0.1c-0.1,0.1-0.1,0.2-0.1,0.2
			c0,0.2-0.1,0.2-0.2,0.1c0,0-0.1-0.1-0.2-0.1c-0.1,0-0.1,0-0.2,0c-0.2,0.1-4,1.4-4,1.4c-0.1,0-0.2,0.1-0.2,0.2
			c0,0.1-2.2,11.3-2.2,11.3c0,0.2-0.1,0.1-0.1,0c0,0-2-6.2-2.1-6.4c-0.1-0.1-0.1-0.3-0.3-0.3c-0.3-0.2-2.7-2-2.7-2
			c-0.2-0.2-0.3-0.1-0.6,0l-2.8,0.9c-0.5,0.2-0.8,0.3-0.9,0.8c0,0.2-2.2,11-2.2,11c0,0.2-0.1,0.3-0.1-0.1l-0.4-6.5
			c0-0.7-0.1-0.8-0.3-1l-2.6-1.9c-0.1-0.1-0.2,0-0.3,0l-3,1c-0.2,0.1-0.3,0.2-0.4,0.3c-0.1,0.1-0.6,1.1-0.7,1.4
			c-0.1,0.2-0.2,0.2-0.4,0c-0.3-0.2-0.7-0.5-0.9-0.7c-0.2-0.1-0.4-0.2-0.6-0.1c-0.4,0.2-9.6,3.3-9.6,3.3c-3.3,1.1-4.5,1.6-5.4,6.2
			c0,0-2.9,14.4-3,15.2c-0.2,1-1.3,2-2.4,2.4l-7.1,2.4c-0.3,0.1-0.3,0.1-0.3,0.3L0,61.5c0,0.1,0,0.2,0.1,0.2
			c0.5,0.4,3.1,2.5,3.2,2.5c0.1,0.1,0.3,0.1,0.4,0c0,0,9.8-3.3,9.8-3.3c3.2-1.1,4-2.5,4.6-4C18.1,56.9,18.1,56.8,18.2,56.8z
			 M80.6,11.1c0.2-0.3,0.2-0.4,0.4-0.4l2.3-0.8c0.1,0,0.1,0,0.1,0.2l1.4,22.4c0,0.1,0,0.3-0.2,0.3l-18.1,6.1
			c-0.1,0.1-0.1-0.1-0.1-0.2L80.6,11.1z M69,30.7l1.9-9.6c0-0.2,0.1-0.2,0.3-0.3l3.4-1.1c0.4-0.1,0.5-0.1,0.5,0L69.2,31
			C69.1,31.2,68.8,31.5,69,30.7z M58,21.5l0.6-3.1c0-0.1,0.1-0.2,0.2-0.3l16-5.4c0.1,0,0.3,0,0.2,0.2c0,0-0.5,2.7-0.6,3
			c0,0.1-0.1,0.2-0.3,0.2c0,0-6,2-6.4,2.2c-0.2,0.1-0.3,0.1-0.3,0.3c-0.1,0.4-4.2,21.1-4.2,21.1c0,0.2-0.1,0.4-0.3,0.4L60.3,41
			c-0.3,0.1-0.3,0-0.3,0l4.2-21.2c0-0.2-0.1-0.2-0.2-0.1l-5.9,2C58,21.6,57.9,21.6,58,21.5z M37.3,48.5L42.2,24
			c0-0.2,0.1-0.2,0.2-0.3l2.6-0.9c0.2-0.1,0.3-0.1,0.3,0.1L50,38.1c0.1,0.2,0.2,0.2,0.3,0l3.6-18.1c0-0.2,0.1-0.2,0.3-0.3l2.7-0.9
			c0.4-0.1,0.4,0,0.4,0.1l-4.9,24.5c0,0.2-0.3,0.3-0.4,0.4l-2.6,0.9c-0.4,0.1-0.4,0-0.5-0.2c0,0-4.3-14.2-4.4-14.4
			c-0.1-0.2-0.2-0.2-0.2,0c0,0-3.2,16.1-3.4,17.1c-0.1,0.4-0.1,0.4-0.2,0.5l-2.9,1C37.3,48.8,37.3,48.6,37.3,48.5z M32.6,27.2
			c0.1-0.2,0.1-0.2,0.3-0.3l2.1-0.7c0.2-0.1,0.4-0.1,0.4,0.2l1.4,21.9c0,0.5,0,0.6-0.2,0.6c0,0-16.8,5.7-17.8,6
			c-0.4,0.1-0.3-0.3-0.2-0.4L32.6,27.2z M19.6,49.9c0-0.1,1.9-9.6,1.9-9.6c0.2-1,0.5-1.8,0.8-2.2c0.7-1,1.3-1.3,2.2-1.6l2.2-0.7
			c0.1,0,0.2,0,0.1,0.2C26.8,36.1,19.9,49.7,19.6,49.9C19.6,50.3,19.6,50.2,19.6,49.9z M15.3,52c-0.2,1.2-0.9,3.2-1.9,4.1
			c-0.4,0.4-1.2,1.2-3.2,1.9c0,0-7.9,2.7-8.6,2.9c-0.2,0.1-0.3,0-0.2-0.2c0,0,0.8-2.8,0.8-3c0-0.1,0.1-0.2,0.1-0.2
			c0.1-0.1,0.2-0.1,0.4-0.2C3.5,57.1,9,55.2,9,55.2c2.1-0.7,2.9-1.8,3.4-4.3l3-15.2c0.2-1.3,0.9-2.2,1.5-2.8c0.7-0.8,2-1.2,3-1.5
			c0.2,0,9-3,9-3c0.2-0.1,0.4-0.1,0.3,0.1c0,0-0.5,2.4-0.5,2.7c-0.1,0.2-0.2,0.5-0.5,0.6L21.5,34c-1,0.3-1.7,0.7-2.4,1.6
			c-0.5,0.6-0.8,1.6-0.9,1.9L15.3,52z M24.9,49.8c0.1,0,6.8-2.3,8.4-2.8c0.3-0.1,0.3-0.1,0.3-0.5c0-0.2-0.7-10.9-0.7-12.1
			c-0.1-0.9-0.2-0.6-0.3-0.3l-7.9,15.4C24.4,49.9,24.6,49.9,24.9,49.8z M30.4,46.6l1.6-3.2c0.2-0.4,0.2-0.5,0.3,0.2l0.1,2.1
			c0,0.2,0,0.3-0.3,0.4l-1.6,0.5C30.3,46.8,30.3,46.7,30.4,46.6z M72.9,33.5l8.6-2.9c0.2-0.1,0.2-0.3,0.2-0.4l-0.8-12.3
			c0-0.4-0.2-0.3-0.3-0.1l-7.9,15.5C72.5,33.4,72.5,33.6,72.9,33.5z M78.4,30.4l1.9-3.7c0-0.1,0-0.1,0.1,0l0.2,2.9
			c0,0.1,0,0.2-0.2,0.2L78.4,30.4C78.4,30.5,78.4,30.5,78.4,30.4z M88.8,43.5l-3-2.6c-0.2-0.2-0.4-0.2-0.7-0.1
			c-0.4,0.1-13.4,4.5-13.4,4.6c-0.1,0-0.1,0.1-0.2,0.2c0,0-0.1,0.5-0.1,0.6c-0.1,0.2-0.1,0.3-0.3,0.2c0,0-0.3-0.3-0.4-0.4
			c-0.1-0.1-0.2-0.2-0.4-0.1l-4.2,1.4c-0.4,0.1-0.4,0.1-0.4,0.3c0,0.2-4,20.1-4.1,20.6c-0.1,0.4-0.2,0.9-0.9,1.2l-1.4,0.5
			c-0.4,0.1-0.2-0.1-0.2-0.5l3.2-16c0.1-0.6,0.1-0.7,0.1-0.8c-0.1-0.2-0.2-0.3-0.4-0.5c-0.4-0.3-2-1.9-2.5-2.3
			c-0.1-0.1-0.2-0.1-0.3-0.1L54.9,51c-0.2,0.1-0.2,0.1-0.4,0.7c-0.1,0.4-0.7,3.8-0.8,3.9c0,0,0,0.1-0.1,0.1c-0.1,0-0.1,0-0.1-0.1
			c-0.1,0-2.1-1.8-2.1-1.9c-0.3-0.2-0.6-0.4-1-0.6c-0.1-0.1-0.7-0.2-1.3-0.1c-0.3,0.1-0.7,0.1-1,0.3c-0.5,0.2-22.3,7.5-22.3,7.5
			c-0.5,0.2-1,0.4-1.5,0.7c-0.3,0.2-0.6,0.4-0.9,0.6c-0.2,0.2-0.4,0.4-0.5,0.6c-0.5,0.5-1,1.7-1.1,2.3L18,84.2
			c-0.1,0.4-0.1,0.8-0.1,1.2c0,0.3,0,0.6,0.1,0.9c0.2,0.4,0.5,0.8,0.8,1.1c0.2,0.1,3.5,2.3,4.4,2.5c0.4,0.1,0.9,0,1.3-0.1l8.9-3
			c0.2-0.1,0.2-0.1,0.3-0.2l0.2-1.2c0,0,0-0.2,0.2,0c0.3,0.2,0.8,0.7,0.9,0.8c0.1,0.1,0.2,0,0.3,0l3.2-1.1c0.2-0.1,0.2-0.1,0.2-0.3
			l1.4-7.1c0-0.2,0-0.2,0.2-0.3c0,0,2.9-1,3.2-1.1c0.1,0,0.1,0,0.2,0c0.1,0,0.1,0.1,0.1,0.2c0.4,0.6,1.2,2,1.2,2
			c0.2,0.3,0.4,0.5,0.6,0.7c0.6,0.4,3,2.3,3.1,2.4c0.1,0.1,0.1,0,0.2,0c0.5-0.2,2.4-0.8,3.5-1.2c0.3-0.1,0.6-0.2,0.6-0.2
			c0.3-0.1,0.3-0.4,0.1-0.6c-0.3-0.4-0.5-0.7-0.7-1.1c-0.3-0.4-0.6-1-0.9-1.4c-0.2-0.3,0-0.2,0.1-0.1c0.5,0.4,1.9,1.3,2,1.4
			c0.4,0.2,0.8,0.5,1.2,0.6c0.5,0.2,0.9,0.2,1.4,0.1c0.2-0.1,9.8-3.3,10.3-3.5c1.6-0.7,2.3-1.9,2.4-2.2c0,0,0-0.1,0.1-0.1
			c0.1,0,0.1,0,0.1,0.1c0.2,0.2,0.9,0.7,1.1,0.8c0.1,0.1,0.2,0.1,0.3,0.1L83.3,70c0.3-0.1,0.4-0.3,0.5-0.5c0.1-0.5,0.7-3.6,0.8-4.1
			c0-0.1,0-0.3-0.1-0.4l-2.7-2.7c-0.1-0.1-0.2-0.2-0.5-0.1L79.1,63c0,0-0.1,0-0.1,0c0,0,0-0.1,0.1-0.2c0.1-0.2,8.7-15,9.1-15.8
			c0.1-0.2,0.2-0.5,0.2-0.7l0.5-2.6C88.9,43.6,88.9,43.5,88.8,43.5z M73,51.7l1.1,0.6c0,0,0.1,0,0.1,0c0.3-0.1,1.9-0.6,1.9-0.6
			c0.1,0,0.2,0,0.1,0.2c-0.2,0.3-4.7,8.1-4.8,8.2c-0.1,0.1-0.1,0.1-0.1,0C71.3,60.1,73,51.7,73,51.7z M30.6,80.8
			c0,0.2-0.5,2.7-0.6,3c0,0.1,0,0.2-0.2,0.2c0,0-7.9,2.7-8.6,2.9c-0.3,0.1-0.5,0.1-0.8,0c-1.2-0.3-1.4-1.3-1.4-1.4
			c-0.1-0.6,0.1-1.7,0.2-2c0.2-0.9,3.7-18.5,3.7-18.5c0.3-1.7,1.5-2.7,2.2-2.9l9.3-3.2c0.1,0,0.3,0,0.2,0.2
			c-0.1,0.5-0.5,2.4-0.6,2.8c-0.1,0.2,0,0.3-0.4,0.4c0,0-5.6,1.8-6.2,2.1c-0.4,0.2-0.6,0.4-0.9,0.6c-0.1,0.1-0.6,0.6-0.8,1.2
			c-0.1,0.3-0.2,0.5-0.2,0.8c-0.1,0.4-2.7,13.6-2.9,14.2c-0.1,0.2-0.1,0.5-0.1,0.7c0,0.1,0,0.2,0,0.3c0,0.3,0.4,0.7,0.9,0.6
			c0.2,0,0.3-0.1,0.5-0.1l6.5-2.2C30.6,80.6,30.6,80.7,30.6,80.8z M31.7,79.6c-0.1,0-0.2-0.2-0.3-0.3c-0.1,0-0.1,0-0.2,0
			c0,0-4.2,1.4-4.2,1.4c-0.2,0.1-0.2-0.1-0.2-0.1c0.1-0.4,2.3-11.3,2.3-11.3c0.1-0.4,0.2-0.8,0.4-1.2c0.2-0.4,0.5-0.8,1-1l3.4-1.1
			c0.1,0,0.3-0.1,0.4-0.1c0.1,0,0.2,0,0.2,0.2c0,0.1-2.6,13.2-2.7,13.4C31.8,79.5,31.8,79.6,31.7,79.6z M50.2,74.5
			C50.2,74.5,50.2,74.5,50.2,74.5c-0.2-0.2-0.4-0.5-0.5-0.7c0,0,0,0,0-0.1c0.2-0.1,0.4-0.2,0.6-0.3c0,0,0,0,0.1,0c0,0,0,0,0,0.1
			C50.4,73.8,50.3,74.1,50.2,74.5z M50.8,57.4c0,0.1-1.9,9.7-1.9,9.7c-0.1,0.4-0.2,0.8-0.3,1.3c0,0.1-0.1,0.3-0.1,0.4
			c-0.1,0.3-0.2,0.5-0.3,0.8c0,0.1-0.4,0.9-1.2,1.5c-0.1,0-0.7,0.4-0.7,0.4c-0.1,0.1-0.2,0.1,0,0.4c0,0,3.1,5.4,3.1,5.5
			c0,0.1,0.1,0.1-0.2,0.2l-2.5,0.9c-0.1,0-0.2,0.1-0.3,0c0,0-3.2-5.5-3.2-5.6c-0.1-0.2-0.2-0.2-0.3-0.1c-0.5,0.2-5.5,1.9-5.6,1.9
			c-0.1,0-0.3,0.1-0.3,0.3c0,0-1.4,7.2-1.4,7.2c0,0.1-0.1,0.2-0.2,0.2c-0.2,0.1-2.9,1-2.9,1c0,0-0.2,0.1-0.2-0.1
			c0,0,4.9-24.5,4.9-24.7c0.1-0.3,0.1-0.3,0.5-0.5c0.1,0,10.8-3.7,11.4-3.9c0.4-0.1,0.7-0.1,1.1,0c0.3,0.1,0.5,0.3,0.6,0.6
			c0.1,0.2,0.2,0.4,0.2,0.6C51,56,50.9,56.7,50.8,57.4z M65.9,67.6c-0.1,0.5-0.6,2.9-0.9,3.5c-0.1,0.4-0.4,0.7-0.6,1
			c-0.1,0.1-0.2,0.3-1.1,0.6L53.5,76c-0.2,0.1-0.5,0.1-0.8,0c-2-0.5-1.5-2.2-1.5-2.4c0,0,4.3-21.6,4.4-21.7c0-0.1,0-0.1,0.2-0.2
			l2.9-1c0.1,0,0.2,0,0.2,0.3c-0.1,0.4-3.8,19.1-4,20.2c0,0.2-0.1,0.5,0,0.7c0,0.2,0.2,0.4,0.9,0.2c0.4-0.1,4.8-1.7,5.6-1.9
			c0.5-0.2,0.8-0.5,1.1-1.1c0.1-0.2,0.1-0.2,0.1-0.4c0.2-1.1,4.1-20.5,4.1-20.6c0-0.1,0.1-0.1,0.1-0.1c0.9-0.3,2.8-1,2.8-1
			c0.4-0.1,0.3,0,0.3,0.1C69.9,47.5,66.1,66.4,65.9,67.6z M85.3,42.1c-0.1,0.7-0.3,1.5-0.4,2.1c-0.1,0.3-0.1,0.6-0.2,0.8
			c0,0.2-0.1,0.4-0.2,0.5C83.7,47,73.4,64.9,73,65.6c-0.1,0.1-0.2,0.3-0.2,0.4c0,0.1-0.2,0.3-0.1,0.3l8.3-2.8c0.1,0,0.1,0,0.1,0
			l-0.7,3.3c0,0.1-0.1,0.1-0.3,0.2l-12.3,4.2c-0.4,0.1-0.4-0.1-0.3-0.1c0.1-0.5,0.5-2.4,0.6-2.9c0-0.2,0.1-0.3,0.2-0.4l12-20.7
			c0.3-0.5-0.4-0.3-1.1,0L72,49.5c-0.1,0-0.1,0.1-0.2,0c-0.1-0.1,0-0.1,0-0.2c0-0.2,0.1-0.3,0.1-0.5c0.2-0.8,0.3-1.6,0.5-2.4
			c0-0.2,0.1-0.3,0.3-0.3c0.1,0,12.2-4.1,12.4-4.2c0.1,0,0.2,0,0.2,0C85.3,42,85.3,42.1,85.3,42.1z M47,58c-0.2,0.1-7.1,2.4-7.1,2.4
			c-0.1,0-0.1,0.1-0.1,0.2c0,0.2-2,10.3-2.1,10.4c0,0.1,0,0.3,0.2,0.2c0,0,6.6-2.3,6.6-2.3c0.7-0.2,1.1-0.7,1.3-1.8
			c0,0,1.6-8.1,1.7-8.6C47.6,57.8,47.2,57.9,47,58z M45.7,62.4l-1,4.8c-0.1,0.4-0.4,0.7-0.9,0.8l-1.6,0.5c-0.2,0-0.2-0.1-0.2-0.2
			c0,0,0.8-4.2,1-5.1c0.1-0.3,0.1-0.3,0.3-0.4c0.6-0.2,1.3-0.4,1.9-0.6C45.6,62,45.7,62.1,45.7,62.4z"/>
	</g>
</g>
</svg>
