<?xml version="1.0" encoding="UTF-8"?>
<svg id="Calque_2" xmlns="http://www.w3.org/2000/svg" xmlns:xlink="http://www.w3.org/1999/xlink" viewBox="0 0 270.42 184.77">
  <defs>
    <style>
      .cls-1, .cls-2 {
        fill: #1d1d1b;
      }

      .cls-3 {
        filter: url(#outer-glow-2);
      }

      .cls-2 {
        filter: url(#drop-shadow-3);
      }
    </style>
    <filter id="outer-glow-2" x="65.27" y="124.05" width="150.48" height="41.04" filterUnits="userSpaceOnUse">
      <feOffset dx="0" dy="0"/>
      <feGaussianBlur result="blur" stdDeviation="1.42"/>
      <feFlood flood-color="#1d1d1b" flood-opacity=".5"/>
      <feComposite in2="blur" operator="in"/>
      <feComposite in="SourceGraphic"/>
    </filter>
    <filter id="drop-shadow-3" x="128.88" y="48.91" width="33.15" height="39.72" filterUnits="userSpaceOnUse">
      <feOffset dx="0" dy="5.67"/>
      <feGaussianBlur result="blur-2" stdDeviation="0"/>
      <feFlood flood-color="#fff" flood-opacity="1"/>
      <feComposite in2="blur-2" operator="in"/>
      <feComposite in="SourceGraphic"/>
    </filter>
  </defs>
  <g id="Calque_1-2" data-name="Calque_1">
    <g>
      <path class="cls-1" d="M84.09,106.26c-.4,2.51-.99,4.84-1.79,7-.7,1.88-1.62,3.59-2.75,5.15l15.98-2.83c-1.53-.79-3.01-1.71-4.45-2.79-2.46-1.85-4.79-4.03-6.99-6.53Z"/>
      <path class="cls-1" d="M200.29,85.67c-.4,2.51-.99,4.84-1.79,7-.7,1.88-1.62,3.59-2.75,5.15l15.98-2.83c-1.53-.79-3.01-1.71-4.45-2.79-2.46-1.85-4.79-4.03-6.99-6.53Z"/>
      <path class="cls-1" d="M269.71,37.99h0c-4.43-25.02-28.31-41.71-53.33-37.27L37.99,32.33C12.97,36.76-3.72,60.64.71,85.66h0c4.4,24.81,27.92,41.42,52.71,37.37-1.99-1.23-3.86-2.73-5.58-4.57-2.54-2.71-4.78-5.91-6.73-9.61-1.95-3.69-3.7-7.55-5.25-11.58-1.55-4.03-2.94-8.11-4.17-12.23-1.23-4.12-2.36-7.94-3.4-11.45-1.04-3.51-2.04-6.57-3-9.18-.96-2.61-1.92-4.48-2.88-5.6-.56-.59-1.14-.94-1.73-1.07-.59-.12-1.18-.23-1.77-.31-.59-.08-1.12-.2-1.6-.34-.48-.14-.89-.53-1.23-1.15-.55-.97-.55-2.23.02-3.77.56-1.55,1.5-3.14,2.81-4.78,1.31-1.64,2.94-3.2,4.88-4.69,1.95-1.49,3.99-2.65,6.12-3.48,2.14-.84,4.31-1.22,6.54-1.16,2.22.06,4.29.8,6.22,2.21,2.1,1.53,3.84,3.74,5.23,6.62,1.39,2.88,2.55,6.14,3.5,9.78.95,3.64,1.73,7.5,2.34,11.58.61,4.08,1.15,8.12,1.63,12.11.48,3.99.98,7.79,1.5,11.39.52,3.6,1.17,6.69,1.93,9.26.76,2.57,1.71,4.52,2.86,5.83,1.15,1.32,2.59,1.71,4.32,1.18.72-.2,1.47-.74,2.23-1.6.76-.86,1.47-2.05,2.11-3.57.64-1.52,1.17-3.41,1.57-5.65.4-2.24.64-4.89.7-7.95-.01-.07-.04-.14-.09-.21-.05-.07-.09-.17-.11-.32-3.26-6.35-5.58-12.67-6.96-18.94-1.38-6.27-1.88-11.88-1.5-16.82.38-4.94,1.66-8.9,3.84-11.88,2.18-2.97,5.18-4.38,9.02-4.23,3.22.11,5.62.66,7.2,1.64,1.58.98,2.7,2.36,3.36,4.15.66,1.79,1.03,3.97,1.1,6.55.07,2.58.19,5.51.36,8.79.16,3.28.55,6.95,1.15,11,.6,4.05,1.77,8.39,3.51,13.03,1.66,4.66,3.16,8.37,4.49,11.15,1.33,2.77,2.56,4.9,3.7,6.37,1.14,1.47,2.17,2.38,3.11,2.71.93.33,1.87.37,2.82.13,2.04-.52,3.45-2.23,4.23-5.15.78-2.92,1.14-6.45,1.09-10.59-.05-4.14-.44-8.61-1.17-13.39-.73-4.78-1.59-9.28-2.56-13.49-.97-4.21-1.96-7.84-2.96-10.9-1-3.06-1.84-4.99-2.51-5.78-.87-1.06-1.83-1.81-2.85-2.24-1.03-.43-1.99-.79-2.88-1.09-.89-.3-1.65-.62-2.29-.97-.63-.34-1.02-.92-1.16-1.74-.28-1.55.09-3.03,1.1-4.42,1.01-1.4,2.41-2.64,4.2-3.72,1.79-1.08,3.85-1.9,6.19-2.47,2.34-.57,4.75-.79,7.25-.66,2.5.13,4.92.69,7.27,1.68,2.35.99,4.47,2.54,6.37,4.64,1.42,1.58,2.79,3.83,4.11,6.76,1.32,2.93,2.48,6.27,3.49,10.01,1.01,3.75,1.79,7.82,2.34,12.21.55,4.4.82,8.83.81,13.28,0,4.46-.39,8.87-1.14,13.23-.75,4.36-1.94,8.42-3.56,12.17-1.62,3.75-3.74,7.08-6.34,9.98-.15.16-.31.3-.46.46l43.48-7.71c-2-1.23-3.87-2.74-5.6-4.58-2.54-2.71-4.78-5.91-6.73-9.61-1.95-3.69-3.7-7.55-5.25-11.58-1.55-4.03-2.94-8.11-4.17-12.23-1.23-4.12-2.36-7.94-3.4-11.45-1.04-3.51-2.04-6.57-3-9.18-.96-2.61-1.92-4.48-2.88-5.6-.56-.59-1.14-.94-1.73-1.07-.59-.12-1.18-.23-1.77-.31-.59-.08-1.12-.2-1.6-.34-.48-.14-.89-.53-1.23-1.15-.55-.97-.55-2.23.02-3.77.56-1.55,1.5-3.14,2.81-4.78,1.31-1.64,2.94-3.2,4.88-4.69,1.95-1.49,3.99-2.65,6.12-3.48,2.14-.84,4.31-1.22,6.54-1.16,2.22.06,4.29.8,6.22,2.21,2.1,1.53,3.84,3.74,5.23,6.62,1.39,2.88,2.55,6.14,3.5,9.78.95,3.64,1.73,7.5,2.34,11.58.61,4.08,1.15,8.12,1.63,12.11s.98,7.79,1.5,11.39c.52,3.6,1.17,6.69,1.93,9.26.76,2.57,1.71,4.52,2.86,5.83,1.15,1.32,2.59,1.71,4.32,1.18.72-.2,1.47-.74,2.23-1.6.76-.86,1.47-2.05,2.11-3.57.64-1.52,1.17-3.41,1.57-5.65.4-2.24.64-4.89.7-7.95-.01-.07-.04-.14-.09-.21-.05-.07-.09-.17-.11-.32-3.26-6.35-5.58-12.67-6.96-18.94-1.38-6.27-1.88-11.88-1.5-16.82.38-4.94,1.66-8.9,3.84-11.88,2.18-2.97,5.18-4.38,9.02-4.23,3.22.11,5.62.66,7.2,1.64,1.58.98,2.7,2.36,3.36,4.15.66,1.79,1.03,3.97,1.1,6.55.07,2.58.19,5.51.36,8.79.16,3.28.55,6.95,1.15,11,.6,4.05,1.77,8.39,3.51,13.03,1.66,4.66,3.16,8.37,4.49,11.15,1.33,2.77,2.56,4.9,3.7,6.37,1.14,1.47,2.17,2.38,3.11,2.71.93.33,1.87.37,2.82.13,2.04-.52,3.45-2.23,4.23-5.15.78-2.92,1.14-6.45,1.09-10.59-.05-4.14-.44-8.61-1.17-13.39-.73-4.78-1.59-9.28-2.56-13.49-.97-4.21-1.96-7.84-2.96-10.9-1-3.06-1.84-4.99-2.51-5.78-.87-1.06-1.83-1.81-2.85-2.24-1.03-.43-1.99-.79-2.88-1.09-.89-.3-1.65-.62-2.29-.97-.63-.34-1.02-.92-1.16-1.74-.27-1.55.09-3.03,1.1-4.42,1.01-1.4,2.41-2.64,4.2-3.72,1.79-1.08,3.85-1.9,6.19-2.47,2.34-.57,4.76-.79,7.26-.66.92.05,2.92,1.38,2,1.18-1.5-.32-3.93.74-3.66,2.46.34,2.23,3,2.09,4.13,1.32.11-.08.14-.09,0,0,0,0,0,0,0,0-.52.39-3,2.47-.63,4.13,1.44,1,3.72-1.2,3.66-.65-.15,1.39-.05,2.55,1.6,3.13,2.66.93,3.28-3.07,3.38-2.93.44.65,2.5,3.83,4.18,1.63,1.17-1.53-1.16-3.95-.62-3.34,1.42,1.58,2.4,3.24,3.71,6.16,1.32,2.93,2.48,6.27,3.49,10.01,1.01,3.75,1.79,7.82,2.34,12.21.55,4.4.82,8.83.81,13.28,0,4.46-.39,8.87-1.14,13.23-.75,4.36-1.94,8.42-3.56,12.17-1.35,3.13-3.07,5.95-5.12,8.49,18.31-8.64,29.34-28.73,25.64-49.62Z"/>
    </g>
    <g class="cls-3">
      <path class="cls-1" d="M74.06,147.15l-4.36-1.73.67-1.3,4.36,1.73-.67,1.3Z"/>
      <path class="cls-1" d="M95.47,147.24c-.05-1.36-.25-2.86-1.98-3.27-1.21-.29-2.07.48-2.32,1.55-.28,1.18.3,2.01,1.71,3.26,1.82,1.6,2.75,2.86,2.3,4.77-.53,2.23-2.71,3.46-5.28,2.84-1.17-.28-2.12-.86-2.89-1.35,0-.52.13-2.38.23-3.38h.72c.07,1.34.57,3.57,2.44,4.01,1.21.29,2.14-.37,2.44-1.63.3-1.27-.25-2.09-1.63-3.37-1.68-1.57-2.67-2.83-2.2-4.8.46-1.95,2.33-3.24,5.01-2.6,1.2.29,2.12.82,2.51.98-.1.74-.21,1.7-.36,2.99h-.7Z"/>
      <path class="cls-1" d="M97.5,157.73l.11-.67c1.5.09,1.68.01,1.96-1.67l1.28-7.7c.28-1.69.13-1.85-1.31-2.23l.11-.67,5.58.93-.11.67c-1.5-.09-1.69,0-1.97,1.68l-1.28,7.7c-.28,1.67-.13,1.8,1.32,2.21l-.11.67-5.58-.93Z"/>
      <path class="cls-1" d="M120.88,147.93c-1.2.06-1.6.27-1.73,1.17-.1.73-.21,1.47-.36,3.26l-.66,8.03-.95-.08-7.21-10.89-.39,4.72c-.15,1.77-.17,2.6-.17,3.19-.01.94.38,1.38,1.77,1.59l-.05.68-4.71-.39.05-.68c1.13,0,1.63-.27,1.81-1.22.13-.69.23-1.48.38-3.25l.4-4.9c.05-.63.05-1.03-.27-1.56-.31-.53-.74-.65-1.58-.81l.06-.68,3.43.28,6.81,9.96.33-4.08c.15-1.79.18-2.53.18-3.23.01-.88-.31-1.29-1.87-1.52l.06-.68,4.72.39-.06.68Z"/>
      <path class="cls-1" d="M134.88,156.75c-.25,1-.71,2.52-1,3.2-.52.13-2.05.55-3.51.58-4.96.1-7.23-3.25-7.3-6.57-.09-4.16,2.87-7.06,7.36-7.15,1.66-.03,3.1.34,3.64.4.11.93.27,2.33.43,3.25l-.71.16c-.43-1.49-.98-2.25-1.99-2.66-.48-.21-1.2-.29-1.8-.28-2.91.06-4.36,2.54-4.29,5.77.08,3.77,1.97,6.23,4.77,6.17,1.73-.04,2.75-.97,3.72-3.14l.68.25Z"/>
      <path class="cls-1" d="M148.42,155.38c-.04.54-.32,2.83-.43,3.42l-9.68,1.09-.07-.67c1.73-.36,1.84-.5,1.65-2.18l-.87-7.76c-.19-1.73-.43-1.82-1.79-1.8l-.08-.68,6.07-.68c1.93-.22,2.62-.31,2.87-.36.07.41.33,2,.54,3.17l-.67.18c-.25-.66-.6-1.31-.93-1.66-.38-.46-.71-.55-1.75-.43l-1.44.16c-.68.08-.73.13-.66.78l.48,4.28,1.96-.22c1.2-.13,1.32-.45,1.42-1.89l.69-.08.49,4.36-.69.08c-.45-1.44-.63-1.65-1.83-1.51l-1.94.22.41,3.64c.16,1.39.36,1.69,1.47,1.59l1.5-.17c1.1-.12,1.34-.31,1.7-.89.38-.57.68-1.39.9-2.08l.68.1Z"/>
      <path class="cls-1" d="M158.18,156.99l-.15-.67c1.95-.57,2.03-.77,1.7-2.21l-1.67-7.28c-.23-1-.51-1.01-1.32-.92l-.71.06-.14-.59c1.32-.51,2.72-1.21,3.67-1.87l2.32,10.11c.34,1.47.48,1.59,2.48,1.25l.15.67-6.34,1.46Z"/>
      <path class="cls-1" d="M172.03,147.49l-.85.87c-.35.35-.65.55-.98.65-2.13.66-3.97-.56-4.59-2.56-.55-1.78.06-4.52,2.8-5.36,2.48-.77,4.62,1.04,5.43,3.66,1.08,3.51-.32,6.71-2.56,8.57-.62.52-1.68,1.08-2.34,1.34l-.34-.63c2.58-1.54,3.7-3.78,3.44-6.53ZM168.32,141.95c-1.14.37-1.25,1.59-.77,3.13.52,1.68,1.83,2.81,3.25,2.37.53-.16.88-.46,1.12-.74-.08-.5-.21-.98-.33-1.37-.56-1.82-1.73-3.88-3.26-3.4Z"/>
      <path class="cls-1" d="M182.26,143.78l-.79.93c-.32.38-.61.59-.93.72-2.07.82-4-.26-4.77-2.21-.68-1.73-.27-4.51,2.39-5.56,2.42-.95,4.68.69,5.69,3.24,1.34,3.42.19,6.72-1.91,8.74-.58.56-1.59,1.2-2.23,1.51l-.39-.6c2.46-1.73,3.41-4.05,2.94-6.78ZM178.14,138.54c-1.11.45-1.13,1.68-.54,3.18.65,1.64,2.03,2.67,3.41,2.12.51-.2.84-.53,1.06-.82-.12-.49-.28-.96-.43-1.34-.7-1.77-2.01-3.74-3.51-3.14Z"/>
      <path class="cls-1" d="M190.36,146.44l-.3-.62c1.78-.99,1.81-1.21,1.17-2.54l-3.26-6.71c-.45-.93-.72-.87-1.49-.6l-.68.22-.27-.55c1.18-.79,2.38-1.79,3.16-2.65l4.53,9.33c.66,1.36.83,1.44,2.7.66l.3.62-5.85,2.85Z"/>
      <path class="cls-1" d="M211.21,129.82l-3.84,2.68-.71-1.28,3.85-2.68.71,1.28Z"/>
    </g>
    <path class="cls-2" d="M145.63,60.8c.15-.78-.1-1.37-.76-1.76-.66-.39-1.43-.57-2.31-.52-.89.05-1.74.32-2.57.83-.83.51-1.36,1.25-1.59,2.25-.26,1.26.04,2.26.89,3.02s2.53,1.16,5.05,1.23c1.08.05,2.24.04,3.48-.05,1.24-.09,2.4-.19,3.48-.3,1.08-.11,2.03-.23,2.85-.37.82-.14,1.35-.26,1.61-.38.64-.28,1.28-.23,1.92.15.64.38,1.22.95,1.76,1.69.53.74,1,1.61,1.39,2.61.39.99.7,1.94.92,2.84.22.9.31,1.7.27,2.39-.04.69-.22,1.13-.57,1.31-.47.26-1.02.45-1.66.56-.64.12-1.28.08-1.9-.1-.63-.18-1.21-.54-1.75-1.09s-.93-1.3-1.18-2.29c-.06,1.63-.54,3.11-1.44,4.43-.9,1.32-2.05,2.42-3.47,3.32-1.42.9-2.99,1.55-4.71,1.96-1.72.41-3.43.53-5.12.35-1.69-.17-3.29-.66-4.79-1.46-1.51-.8-2.73-1.98-3.68-3.55-.61-.98-.96-1.99-1.06-3.04-.1-1.05,0-2.06.29-3.04s.73-1.88,1.33-2.71,1.3-1.51,2.12-2.03c-1.23-.19-2.29-.64-3.16-1.35-.87-.71-1.51-1.58-1.91-2.6-.4-1.02-.56-2.15-.45-3.38.1-1.22.5-2.44,1.2-3.63.7-1.2,1.72-2.32,3.07-3.36,1.35-1.04,3.08-1.9,5.17-2.57,2.99-.96,5.59-1.37,7.78-1.21,2.2.15,3.99.67,5.37,1.54,1.38.87,2.37,2.03,2.96,3.45.59,1.43.75,2.92.48,4.47-.15,1-.51,1.84-1.06,2.52-.55.67-1.19,1.19-1.92,1.56-.73.36-1.49.6-2.28.71-.79.11-1.51.08-2.14-.08-.64-.16-1.14-.44-1.51-.84-.37-.39-.5-.89-.39-1.47ZM138.48,73.62c.52.6,1.25.96,2.19,1.08.94.12,1.89.02,2.85-.29.96-.31,1.85-.85,2.67-1.63.81-.78,1.37-1.78,1.67-3.02-1.23-.15-2.53-.27-3.91-.34-1.38-.07-2.74-.14-4.09-.22-.52-.02-.95.12-1.3.42-.35.29-.59.68-.73,1.14-.14.47-.17.95-.08,1.46.09.5.33.97.72,1.39Z"/>
  </g>
</svg>